<?xml version='1.0' encoding='UTF-8'?>
<!DOCTYPE svg PUBLIC "-//W3C//DTD SVG 1.0//EN" "http://www.w3.org/TR/2001/REC-SVG-20010904/DTD/svg10.dtd">
<svg viewBox="0 0 1896 1272" xmlns="http://www.w3.org/2000/svg" xmlns:inkspace="http://www.inkscape.org/namespaces/inkscape" xmlns:xlink="http://www.w3.org/1999/xlink">
  <defs id="defs_block">
    <filter height="1.504" id="filter_blur" inkspace:collect="always" width="1.1575" x="-0.07875" y="-0.252">
      <feGaussianBlur id="feGaussianBlur3780" inkspace:collect="always" stdDeviation="4.2" />
    </filter>
  </defs>
  <title>blockdiag</title>
  <desc>{
autonumber = True;
//activation = None;
default_note_color = lightblue;
edge_length = 180;
span_height = 10;
b[label="User\n(Browser)"];
e[label="Ext. HA Proxy"];
f[label="Gunicorn → Falcon"];
ze[label="Zengine"];
sw[label="SpiffWorkflow"];
m[label="ZAERP Modules"];
p[label="Pyoko DAL"];
//z[label="Zato Services"];
c[label="Redis"];
i[label="Int. HA Proxy"];
r[label="Riak"]
//class fff[color=red]
//group {class=fff;i;r}
//group {p;c}

b -&gt; e  [label = "GET:/show_student/STD_ID"];
e -&gt; f [label = "GET:/show_student/STD_ID", note="Gunicorn and Falcon\n combined for brevity"];
f -&gt; ze [label = "dispatch_request(show_student, context)", note="context holds request\n  and response objects"];
ze -&gt; sw [label = "start_or_resume_wf\n(show_student, context)"];

sw -&gt; sw [label = "execute READY \n tasks with context"];

sw -&gt; m [label = "show_student(context)", note="zaerp.views.student.show_student"];
m -&gt; p [label = "get_student(STD_ID)"]

alt{
    p =&gt; c [label ="bucket: student, \n id: STD_ID",
     return="None", note="Not found in cache "]

    alt{
        p -&gt; i [label ="bucket: student, \n id: STD_ID",
         return=""]

        i =&gt; r  [label ="bucket: student, \n id: STD_ID",
         return="found"]
        p &lt;-- i [label=""]
        p =&gt; c [label="cache_obj(student, STD_ID, student_obj)", return="ok"]
    }
}
m &lt;-- p [label="return student data"]
sw &lt;-- m [label="return student data"]
sw --&gt; sw [label="complete_current_task()"]
ze &lt;-- sw [label="return student data"]
ze --&gt; ze [label="save_workflow_state()"]
b &lt;-- e &lt;-- f &lt;-- ze  [label="return json response"]
}
</desc>
  <rect fill="rgb(0,0,0)" height="1183" style="filter:url(#filter_blur);opacity:0.7;fill-opacity:1" width="8" x="127" y="82" />
  <rect fill="rgb(0,0,0)" height="1138" style="filter:url(#filter_blur);opacity:0.7;fill-opacity:1" width="8" x="307" y="82" />
  <rect fill="rgb(0,0,0)" height="1054" style="filter:url(#filter_blur);opacity:0.7;fill-opacity:1" width="8" x="487" y="116" />
  <rect fill="rgb(0,0,0)" height="950" style="filter:url(#filter_blur);opacity:0.7;fill-opacity:1" width="8" x="667" y="170" />
  <rect fill="rgb(0,0,0)" height="782" style="filter:url(#filter_blur);opacity:0.7;fill-opacity:1" width="8" x="847" y="220" />
  <rect fill="rgb(0,0,0)" height="568" style="filter:url(#filter_blur);opacity:0.7;fill-opacity:1" width="8" x="1027" y="318" />
  <rect fill="rgb(0,0,0)" height="468" style="filter:url(#filter_blur);opacity:0.7;fill-opacity:1" width="8" x="1223" y="368" />
  <rect fill="rgb(0,0,0)" height="34" style="filter:url(#filter_blur);opacity:0.7;fill-opacity:1" width="8" x="1403" y="440" />
  <rect fill="rgb(0,0,0)" height="34" style="filter:url(#filter_blur);opacity:0.7;fill-opacity:1" width="8" x="1403" y="748" />
  <rect fill="rgb(0,0,0)" height="134" style="filter:url(#filter_blur);opacity:0.7;fill-opacity:1" width="8" x="1583" y="548" />
  <rect fill="rgb(0,0,0)" height="34" style="filter:url(#filter_blur);opacity:0.7;fill-opacity:1" width="8" x="1763" y="598" />
  <polygon fill="rgb(0,0,0)" points="507,102 623,102 631,110 631,130 507,130 507,102" stroke="rgb(0,0,0)" style="filter:url(#filter_blur);opacity:0.7;fill-opacity:1" />
  <polygon fill="rgb(0,0,0)" points="687,155 808,155 816,163 816,185 687,185 687,155" stroke="rgb(0,0,0)" style="filter:url(#filter_blur);opacity:0.7;fill-opacity:1" />
  <polygon fill="rgb(0,0,0)" points="1047,310 1236,310 1244,318 1244,326 1047,326 1047,310" stroke="rgb(0,0,0)" style="filter:url(#filter_blur);opacity:0.7;fill-opacity:1" />
  <polygon fill="rgb(0,0,0)" points="1423,433 1530,433 1538,441 1538,447 1423,447 1423,433" stroke="rgb(0,0,0)" style="filter:url(#filter_blur);opacity:0.7;fill-opacity:1" />
  <rect fill="rgb(0,0,0)" height="40" stroke="rgb(0,0,0)" style="filter:url(#filter_blur);opacity:0.7;fill-opacity:1" width="128" x="67" y="16" />
  <rect fill="rgb(0,0,0)" height="40" stroke="rgb(0,0,0)" style="filter:url(#filter_blur);opacity:0.7;fill-opacity:1" width="128" x="247" y="16" />
  <rect fill="rgb(0,0,0)" height="40" stroke="rgb(0,0,0)" style="filter:url(#filter_blur);opacity:0.7;fill-opacity:1" width="128" x="427" y="16" />
  <rect fill="rgb(0,0,0)" height="40" stroke="rgb(0,0,0)" style="filter:url(#filter_blur);opacity:0.7;fill-opacity:1" width="128" x="607" y="16" />
  <rect fill="rgb(0,0,0)" height="40" stroke="rgb(0,0,0)" style="filter:url(#filter_blur);opacity:0.7;fill-opacity:1" width="128" x="787" y="16" />
  <rect fill="rgb(0,0,0)" height="40" stroke="rgb(0,0,0)" style="filter:url(#filter_blur);opacity:0.7;fill-opacity:1" width="128" x="967" y="16" />
  <rect fill="rgb(0,0,0)" height="40" stroke="rgb(0,0,0)" style="filter:url(#filter_blur);opacity:0.7;fill-opacity:1" width="128" x="1163" y="16" />
  <rect fill="rgb(0,0,0)" height="40" stroke="rgb(0,0,0)" style="filter:url(#filter_blur);opacity:0.7;fill-opacity:1" width="128" x="1343" y="16" />
  <rect fill="rgb(0,0,0)" height="40" stroke="rgb(0,0,0)" style="filter:url(#filter_blur);opacity:0.7;fill-opacity:1" width="128" x="1523" y="16" />
  <rect fill="rgb(0,0,0)" height="40" stroke="rgb(0,0,0)" style="filter:url(#filter_blur);opacity:0.7;fill-opacity:1" width="128" x="1703" y="16" />
  <rect fill="none" height="438" stroke="rgb(0,0,0)" width="720" x="1134" y="380" />
  <path d="M 1134 394 L 1161 394" fill="none" stroke="rgb(0,0,0)" />
  <path d="M 1161 394 L 1177 380" fill="none" stroke="rgb(0,0,0)" />
  <text fill="rgb(0,0,0)" font-family="sans-serif" font-size="11" font-style="normal" font-weight="normal" text-anchor="middle" textLength="11" x="1147" y="392">alt</text>
  <rect fill="none" height="322" stroke="rgb(0,0,0)" width="704" x="1142" y="488" />
  <path d="M 1142 502 L 1169 502" fill="none" stroke="rgb(0,0,0)" />
  <path d="M 1169 502 L 1185 488" fill="none" stroke="rgb(0,0,0)" />
  <text fill="rgb(0,0,0)" font-family="sans-serif" font-size="11" font-style="normal" font-weight="normal" text-anchor="middle" textLength="11" x="1155" y="500">alt</text>
  <path d="M 128 50 L 128 1275" fill="none" stroke="rgb(0,0,0)" stroke-dasharray="8 4" />
  <rect fill="moccasin" height="1183" stroke="rgb(0,0,0)" width="8" x="124" y="76" />
  <path d="M 308 50 L 308 1275" fill="none" stroke="rgb(0,0,0)" stroke-dasharray="8 4" />
  <rect fill="moccasin" height="1138" stroke="rgb(0,0,0)" width="8" x="304" y="76" />
  <path d="M 488 50 L 488 1275" fill="none" stroke="rgb(0,0,0)" stroke-dasharray="8 4" />
  <rect fill="moccasin" height="1054" stroke="rgb(0,0,0)" width="8" x="484" y="110" />
  <path d="M 668 50 L 668 1275" fill="none" stroke="rgb(0,0,0)" stroke-dasharray="8 4" />
  <rect fill="moccasin" height="950" stroke="rgb(0,0,0)" width="8" x="664" y="164" />
  <path d="M 848 50 L 848 1275" fill="none" stroke="rgb(0,0,0)" stroke-dasharray="8 4" />
  <rect fill="moccasin" height="782" stroke="rgb(0,0,0)" width="8" x="844" y="214" />
  <path d="M 1028 50 L 1028 1275" fill="none" stroke="rgb(0,0,0)" stroke-dasharray="8 4" />
  <rect fill="moccasin" height="568" stroke="rgb(0,0,0)" width="8" x="1024" y="312" />
  <path d="M 1224 50 L 1224 1275" fill="none" stroke="rgb(0,0,0)" stroke-dasharray="8 4" />
  <rect fill="moccasin" height="468" stroke="rgb(0,0,0)" width="8" x="1220" y="362" />
  <path d="M 1404 50 L 1404 1275" fill="none" stroke="rgb(0,0,0)" stroke-dasharray="8 4" />
  <rect fill="moccasin" height="34" stroke="rgb(0,0,0)" width="8" x="1400" y="434" />
  <rect fill="moccasin" height="34" stroke="rgb(0,0,0)" width="8" x="1400" y="742" />
  <path d="M 1584 50 L 1584 1275" fill="none" stroke="rgb(0,0,0)" stroke-dasharray="8 4" />
  <rect fill="moccasin" height="134" stroke="rgb(0,0,0)" width="8" x="1580" y="542" />
  <path d="M 1764 50 L 1764 1275" fill="none" stroke="rgb(0,0,0)" stroke-dasharray="8 4" />
  <rect fill="moccasin" height="34" stroke="rgb(0,0,0)" width="8" x="1760" y="592" />
  <rect fill="rgb(255,255,255)" height="40" stroke="rgb(0,0,0)" width="128" x="64" y="10" />
  <text fill="rgb(0,0,0)" font-family="sans-serif" font-size="11" font-style="normal" font-weight="normal" text-anchor="middle" textLength="23" x="128" y="28">User</text>
  <text fill="rgb(0,0,0)" font-family="sans-serif" font-size="11" font-style="normal" font-weight="normal" text-anchor="middle" textLength="51" x="128" y="42">(Browser)</text>
  <rect fill="rgb(255,255,255)" height="40" stroke="rgb(0,0,0)" width="128" x="244" y="10" />
  <text fill="rgb(0,0,0)" font-family="sans-serif" font-size="11" font-style="normal" font-weight="normal" text-anchor="middle" textLength="67" x="308" y="36">Ext. HA Proxy</text>
  <rect fill="rgb(255,255,255)" height="40" stroke="rgb(0,0,0)" width="128" x="424" y="10" />
  <text fill="rgb(0,0,0)" font-family="sans-serif" font-size="11" font-style="normal" font-weight="normal" text-anchor="middle" textLength="93" x="488" y="35">Gunicorn → Falcon</text>
  <rect fill="rgb(255,255,255)" height="40" stroke="rgb(0,0,0)" width="128" x="604" y="10" />
  <text fill="rgb(0,0,0)" font-family="sans-serif" font-size="11" font-style="normal" font-weight="normal" text-anchor="middle" textLength="39" x="668" y="36">Zengine</text>
  <rect fill="rgb(255,255,255)" height="40" stroke="rgb(0,0,0)" width="128" x="784" y="10" />
  <text fill="rgb(0,0,0)" font-family="sans-serif" font-size="11" font-style="normal" font-weight="normal" text-anchor="middle" textLength="70" x="848" y="36">SpiffWorkflow</text>
  <rect fill="rgb(255,255,255)" height="40" stroke="rgb(0,0,0)" width="128" x="964" y="10" />
  <text fill="rgb(0,0,0)" font-family="sans-serif" font-size="11" font-style="normal" font-weight="normal" text-anchor="middle" textLength="77" x="1028" y="35">ZAERP Modules</text>
  <rect fill="rgb(255,255,255)" height="40" stroke="rgb(0,0,0)" width="128" x="1160" y="10" />
  <text fill="rgb(0,0,0)" font-family="sans-serif" font-size="11" font-style="normal" font-weight="normal" text-anchor="middle" textLength="53" x="1224" y="36">Pyoko DAL</text>
  <rect fill="rgb(255,255,255)" height="40" stroke="rgb(0,0,0)" width="128" x="1340" y="10" />
  <text fill="rgb(0,0,0)" font-family="sans-serif" font-size="11" font-style="normal" font-weight="normal" text-anchor="middle" textLength="27" x="1404" y="35">Redis</text>
  <rect fill="rgb(255,255,255)" height="40" stroke="rgb(0,0,0)" width="128" x="1520" y="10" />
  <text fill="rgb(0,0,0)" font-family="sans-serif" font-size="11" font-style="normal" font-weight="normal" text-anchor="middle" textLength="63" x="1584" y="36">Int. HA Proxy</text>
  <rect fill="rgb(255,255,255)" height="40" stroke="rgb(0,0,0)" width="128" x="1700" y="10" />
  <text fill="rgb(0,0,0)" font-family="sans-serif" font-size="11" font-style="normal" font-weight="normal" text-anchor="middle" textLength="20" x="1764" y="35">Riak</text>
  <path d="M 136 76 L 300 76" fill="none" stroke="rgb(0,0,0)" />
  <polygon fill="rgb(0,0,0)" points="292,72 300,76 292,80" stroke="rgb(0,0,0)" />
  <path d="M 316 110 L 480 110" fill="none" stroke="rgb(0,0,0)" />
  <polygon fill="rgb(0,0,0)" points="472,106 480,110 472,114" stroke="rgb(0,0,0)" />
  <polygon fill="rgb(173,216,230)" points="504,96 620,96 628,104 628,124 504,124 504,96" stroke="rgb(0,0,0)" />
  <path d="M 620 96 L 620 104" fill="none" stroke="rgb(0,0,0)" />
  <path d="M 620 104 L 628 104" fill="none" stroke="rgb(0,0,0)" />
  <text fill="rgb(0,0,0)" font-family="sans-serif" font-size="11" font-style="normal" font-weight="normal" text-anchor="middle" textLength="100" x="562" y="108">Gunicorn and Falcon</text>
  <text fill="rgb(0,0,0)" font-family="sans-serif" font-size="11" font-style="normal" font-weight="normal" text-anchor="middle" textLength="99" x="561" y="122">combined for brevity</text>
  <path d="M 496 164 L 660 164" fill="none" stroke="rgb(0,0,0)" />
  <polygon fill="rgb(0,0,0)" points="652,160 660,164 652,168" stroke="rgb(0,0,0)" />
  <polygon fill="rgb(173,216,230)" points="684,149 805,149 813,157 813,179 684,179 684,149" stroke="rgb(0,0,0)" />
  <path d="M 805 149 L 805 157" fill="none" stroke="rgb(0,0,0)" />
  <path d="M 805 157 L 813 157" fill="none" stroke="rgb(0,0,0)" />
  <text fill="rgb(0,0,0)" font-family="sans-serif" font-size="11" font-style="normal" font-weight="normal" text-anchor="middle" textLength="105" x="744" y="163">context holds request</text>
  <text fill="rgb(0,0,0)" font-family="sans-serif" font-size="11" font-style="normal" font-weight="normal" text-anchor="middle" textLength="105" x="744" y="177">and response objects</text>
  <path d="M 676 214 L 840 214" fill="none" stroke="rgb(0,0,0)" />
  <polygon fill="rgb(0,0,0)" points="832,210 840,214 832,218" stroke="rgb(0,0,0)" />
  <path d="M 856 260 L 938 260" fill="none" stroke="rgb(0,0,0)" />
  <path d="M 938 260 L 938 276" fill="none" stroke="rgb(0,0,0)" />
  <path d="M 938 276 L 856 276" fill="none" stroke="rgb(0,0,0)" />
  <polygon fill="rgb(0,0,0)" points="864,272 856,276 864,280" stroke="rgb(0,0,0)" />
  <path d="M 856 312 L 1020 312" fill="none" stroke="rgb(0,0,0)" />
  <polygon fill="rgb(0,0,0)" points="1012,308 1020,312 1012,316" stroke="rgb(0,0,0)" />
  <polygon fill="rgb(173,216,230)" points="1044,304 1233,304 1241,312 1241,320 1044,320 1044,304" stroke="rgb(0,0,0)" />
  <path d="M 1233 304 L 1233 312" fill="none" stroke="rgb(0,0,0)" />
  <path d="M 1233 312 L 1241 312" fill="none" stroke="rgb(0,0,0)" />
  <text fill="rgb(0,0,0)" font-family="sans-serif" font-size="11" font-style="normal" font-weight="normal" text-anchor="middle" textLength="173" x="1138" y="318">zaerp.views.student.show_student</text>
  <path d="M 1036 362 L 1216 362" fill="none" stroke="rgb(0,0,0)" />
  <polygon fill="rgb(0,0,0)" points="1208,358 1216,362 1208,366" stroke="rgb(0,0,0)" />
  <path d="M 1232 434 L 1396 434" fill="none" stroke="rgb(0,0,0)" />
  <polygon fill="rgb(0,0,0)" points="1388,430 1396,434 1388,438" stroke="rgb(0,0,0)" />
  <polygon fill="rgb(173,216,230)" points="1420,427 1527,427 1535,435 1535,441 1420,441 1420,427" stroke="rgb(0,0,0)" />
  <path d="M 1527 427 L 1527 435" fill="none" stroke="rgb(0,0,0)" />
  <path d="M 1527 435 L 1535 435" fill="none" stroke="rgb(0,0,0)" />
  <text fill="rgb(0,0,0)" font-family="sans-serif" font-size="11" font-style="normal" font-weight="normal" text-anchor="middle" textLength="91" x="1473" y="439">Not found in cache</text>
  <path d="M 1232 468 L 1396 468" fill="none" stroke="rgb(0,0,0)" stroke-dasharray="4" />
  <polygon fill="rgb(0,0,0)" points="1240,464 1232,468 1240,472" stroke="rgb(0,0,0)" />
  <path d="M 1232 542 L 1576 542" fill="none" stroke="rgb(0,0,0)" />
  <polygon fill="rgb(0,0,0)" points="1568,538 1576,542 1568,546" stroke="rgb(0,0,0)" />
  <path d="M 1592 592 L 1756 592" fill="none" stroke="rgb(0,0,0)" />
  <polygon fill="rgb(0,0,0)" points="1748,588 1756,592 1748,596" stroke="rgb(0,0,0)" />
  <path d="M 1592 626 L 1756 626" fill="none" stroke="rgb(0,0,0)" stroke-dasharray="4" />
  <polygon fill="rgb(0,0,0)" points="1600,622 1592,626 1600,630" stroke="rgb(0,0,0)" />
  <path d="M 1232 676 L 1576 676" fill="none" stroke="rgb(0,0,0)" stroke-dasharray="4" />
  <polygon fill="rgb(0,0,0)" points="1240,672 1232,676 1240,680" stroke="rgb(0,0,0)" />
  <path d="M 1232 742 L 1396 742" fill="none" stroke="rgb(0,0,0)" />
  <polygon fill="rgb(0,0,0)" points="1388,738 1396,742 1388,746" stroke="rgb(0,0,0)" />
  <path d="M 1232 776 L 1396 776" fill="none" stroke="rgb(0,0,0)" stroke-dasharray="4" />
  <polygon fill="rgb(0,0,0)" points="1240,772 1232,776 1240,780" stroke="rgb(0,0,0)" />
  <path d="M 1036 830 L 1216 830" fill="none" stroke="rgb(0,0,0)" stroke-dasharray="4" />
  <polygon fill="rgb(0,0,0)" points="1044,826 1036,830 1044,834" stroke="rgb(0,0,0)" />
  <path d="M 856 880 L 1020 880" fill="none" stroke="rgb(0,0,0)" stroke-dasharray="4" />
  <polygon fill="rgb(0,0,0)" points="864,876 856,880 864,884" stroke="rgb(0,0,0)" />
  <path d="M 856 946 L 938 946" fill="none" stroke="rgb(0,0,0)" stroke-dasharray="4" />
  <path d="M 938 946 L 938 962" fill="none" stroke="rgb(0,0,0)" stroke-dasharray="4" />
  <path d="M 938 962 L 856 962" fill="none" stroke="rgb(0,0,0)" stroke-dasharray="4" />
  <polygon fill="rgb(0,0,0)" points="864,958 856,962 864,966" stroke="rgb(0,0,0)" />
  <path d="M 676 996 L 840 996" fill="none" stroke="rgb(0,0,0)" stroke-dasharray="4" />
  <polygon fill="rgb(0,0,0)" points="684,992 676,996 684,1000" stroke="rgb(0,0,0)" />
  <path d="M 676 1062 L 758 1062" fill="none" stroke="rgb(0,0,0)" stroke-dasharray="4" />
  <path d="M 758 1062 L 758 1078" fill="none" stroke="rgb(0,0,0)" stroke-dasharray="4" />
  <path d="M 758 1078 L 676 1078" fill="none" stroke="rgb(0,0,0)" stroke-dasharray="4" />
  <polygon fill="rgb(0,0,0)" points="684,1074 676,1078 684,1082" stroke="rgb(0,0,0)" />
  <path d="M 496 1114 L 660 1114" fill="none" stroke="rgb(0,0,0)" stroke-dasharray="4" />
  <polygon fill="rgb(0,0,0)" points="504,1110 496,1114 504,1118" stroke="rgb(0,0,0)" />
  <path d="M 316 1164 L 480 1164" fill="none" stroke="rgb(0,0,0)" stroke-dasharray="4" />
  <polygon fill="rgb(0,0,0)" points="324,1160 316,1164 324,1168" stroke="rgb(0,0,0)" />
  <path d="M 136 1214 L 300 1214" fill="none" stroke="rgb(0,0,0)" stroke-dasharray="4" />
  <polygon fill="rgb(0,0,0)" points="144,1210 136,1214 144,1218" stroke="rgb(0,0,0)" />
  <text fill="rgb(0,0,0)" font-family="sans-serif" font-size="11" font-style="normal" font-weight="normal" text-anchor="middle" textLength="145" x="212" y="74">1. GET:/show_student/STD_ID</text>
  <text fill="rgb(0,0,0)" font-family="sans-serif" font-size="11" font-style="normal" font-weight="normal" text-anchor="middle" textLength="145" x="392" y="108">2. GET:/show_student/STD_ID</text>
  <text fill="rgb(0,0,0)" font-family="sans-serif" font-size="11" font-style="normal" font-weight="normal" text-anchor="middle" textLength="155" x="577" y="148">3. dispatch_request(show_stud</text>
  <text fill="rgb(0,0,0)" font-family="sans-serif" font-size="11" font-style="normal" font-weight="normal" text-anchor="middle" textLength="61" x="530" y="162">ent, context)</text>
  <text fill="rgb(0,0,0)" font-family="sans-serif" font-size="11" font-style="normal" font-weight="normal" text-anchor="middle" textLength="112" x="736" y="198">4. start_or_resume_wf</text>
  <text fill="rgb(0,0,0)" font-family="sans-serif" font-size="11" font-style="normal" font-weight="normal" text-anchor="middle" textLength="120" x="740" y="212">(show_student, context)</text>
  <text fill="rgb(0,0,0)" font-family="sans-serif" font-size="11" font-style="normal" font-weight="normal" text-anchor="middle" textLength="90" x="901" y="246">5. execute READY</text>
  <text fill="rgb(0,0,0)" font-family="sans-serif" font-size="11" font-style="normal" font-weight="normal" text-anchor="middle" textLength="89" x="900" y="258">tasks with context</text>
  <text fill="rgb(0,0,0)" font-family="sans-serif" font-size="11" font-style="normal" font-weight="normal" text-anchor="middle" textLength="126" x="923" y="310">6. show_student(context)</text>
  <text fill="rgb(0,0,0)" font-family="sans-serif" font-size="11" font-style="normal" font-weight="normal" text-anchor="middle" textLength="112" x="1096" y="360">7. get_student(STD_ID)</text>
  <text fill="rgb(0,0,0)" font-family="sans-serif" font-size="11" font-style="normal" font-weight="normal" text-anchor="middle" textLength="89" x="1280" y="418">8. bucket: student,</text>
  <text fill="rgb(0,0,0)" font-family="sans-serif" font-size="11" font-style="normal" font-weight="normal" text-anchor="middle" textLength="49" x="1260" y="432">id: STD_ID</text>
  <text fill="rgb(0,0,0)" font-family="sans-serif" font-size="11" font-style="normal" font-weight="normal" text-anchor="middle" textLength="37" x="1377" y="466">9. None</text>
  <text fill="rgb(0,0,0)" font-family="sans-serif" font-size="11" font-style="normal" font-weight="normal" text-anchor="middle" textLength="95" x="1283" y="526">10. bucket: student,</text>
  <text fill="rgb(0,0,0)" font-family="sans-serif" font-size="11" font-style="normal" font-weight="normal" text-anchor="middle" textLength="49" x="1260" y="540">id: STD_ID</text>
  <text fill="rgb(0,0,0)" font-family="sans-serif" font-size="11" font-style="normal" font-weight="normal" text-anchor="middle" textLength="95" x="1643" y="576">11. bucket: student,</text>
  <text fill="rgb(0,0,0)" font-family="sans-serif" font-size="11" font-style="normal" font-weight="normal" text-anchor="middle" textLength="49" x="1620" y="590">id: STD_ID</text>
  <text fill="rgb(0,0,0)" font-family="sans-serif" font-size="11" font-style="normal" font-weight="normal" text-anchor="middle" textLength="46" x="1733" y="624">12. found</text>
  <text fill="rgb(0,0,0)" font-family="sans-serif" font-size="11" font-style="normal" font-weight="normal" text-anchor="middle" textLength="15" x="1568" y="674">13.</text>
  <text fill="rgb(0,0,0)" font-family="sans-serif" font-size="11" font-style="normal" font-weight="normal" text-anchor="middle" textLength="155" x="1313" y="726">14. cache_obj(student, STD_ID, </text>
  <text fill="rgb(0,0,0)" font-family="sans-serif" font-size="11" font-style="normal" font-weight="normal" text-anchor="middle" textLength="60" x="1266" y="740">student_obj)</text>
  <text fill="rgb(0,0,0)" font-family="sans-serif" font-size="11" font-style="normal" font-weight="normal" text-anchor="middle" textLength="29" x="1381" y="774">15. ok</text>
  <text fill="rgb(0,0,0)" font-family="sans-serif" font-size="11" font-style="normal" font-weight="normal" text-anchor="middle" textLength="110" x="1161" y="828">16. return student data</text>
  <text fill="rgb(0,0,0)" font-family="sans-serif" font-size="11" font-style="normal" font-weight="normal" text-anchor="middle" textLength="110" x="965" y="878">17. return student data</text>
  <text fill="rgb(0,0,0)" font-family="sans-serif" font-size="11" font-style="normal" font-weight="normal" text-anchor="middle" textLength="102" x="907" y="930">18. complete_current</text>
  <text fill="rgb(0,0,0)" font-family="sans-serif" font-size="11" font-style="normal" font-weight="normal" text-anchor="middle" textLength="34" x="873" y="944">_task()</text>
  <text fill="rgb(0,0,0)" font-family="sans-serif" font-size="11" font-style="normal" font-weight="normal" text-anchor="middle" textLength="110" x="785" y="994">19. return student data</text>
  <text fill="rgb(0,0,0)" font-family="sans-serif" font-size="11" font-style="normal" font-weight="normal" text-anchor="middle" textLength="101" x="726" y="1046">20. save_workflow_</text>
  <text fill="rgb(0,0,0)" font-family="sans-serif" font-size="11" font-style="normal" font-weight="normal" text-anchor="middle" textLength="32" x="692" y="1060">state()</text>
  <text fill="rgb(0,0,0)" font-family="sans-serif" font-size="11" font-style="normal" font-weight="normal" text-anchor="middle" textLength="119" x="600" y="1112">21. return json response</text>
  <text fill="rgb(0,0,0)" font-family="sans-serif" font-size="11" font-style="normal" font-weight="normal" text-anchor="middle" textLength="119" x="420" y="1162">22. return json response</text>
  <text fill="rgb(0,0,0)" font-family="sans-serif" font-size="11" font-style="normal" font-weight="normal" text-anchor="middle" textLength="119" x="240" y="1212">23. return json response</text>
</svg>
